<svg width="143" height="142" viewBox="0 0 143 142" fill="none" xmlns="http://www.w3.org/2000/svg">
<g clip-path="url(#clip0_1_51)">
<path d="M21.1682 141.985C32.8507 141.985 42.3211 132.515 42.3211 120.833C42.3211 109.151 32.8507 99.681 21.1682 99.681C9.48575 99.681 0.0152588 109.151 0.0152588 120.833C0.0152588 132.515 9.48575 141.985 21.1682 141.985Z" fill="#608C2C"/>
<path d="M55.4253 109.745C67.1077 109.745 76.5782 100.275 76.5782 88.5934C76.5782 76.9116 67.1077 67.4416 55.4253 67.4416C43.7428 67.4416 34.2723 76.9116 34.2723 88.5934C34.2723 100.275 43.7428 109.745 55.4253 109.745Z" fill="#608C2C"/>
<path d="M87.5747 74.5584C99.2571 74.5584 108.728 65.0884 108.728 53.4065C108.728 41.7247 99.2571 32.2547 87.5747 32.2547C75.8922 32.2547 66.4218 41.7247 66.4218 53.4065C66.4218 65.0884 75.8922 74.5584 87.5747 74.5584Z" fill="#608C2C"/>
<path d="M121.832 42.319C133.514 42.319 142.985 32.849 142.985 21.1671C142.985 9.48527 133.514 0.0152588 121.832 0.0152588C110.149 0.0152588 100.679 9.48527 100.679 21.1671C100.679 32.849 110.149 42.319 121.832 42.319Z" fill="#608C2C"/>
</g>
<defs>
<clipPath id="clip0_1_51">
<rect width="143" height="142" fill="white"/>
</clipPath>
</defs>
</svg>
