<svg width="126" height="125" viewBox="0 0 126 125" fill="none" xmlns="http://www.w3.org/2000/svg">
<g clip-path="url(#clip0_1_56)">
<path d="M18.6517 124.987C28.9453 124.987 37.29 116.65 37.29 106.367C37.29 96.0836 28.9453 87.7474 18.6517 87.7474C8.35809 87.7474 0.0134583 96.0836 0.0134583 106.367C0.0134583 116.65 8.35809 124.987 18.6517 124.987Z" fill="#F2AAAA"/>
<path d="M48.8363 96.6068C59.1299 96.6068 67.4745 88.2705 67.4745 77.9872C67.4745 67.7039 59.1299 59.3676 48.8363 59.3676C38.5426 59.3676 30.198 67.7039 30.198 77.9872C30.198 88.2705 38.5426 96.6068 48.8363 96.6068Z" fill="#F2AAAA"/>
<path d="M77.1637 65.6324C87.4574 65.6324 95.802 57.2961 95.802 47.0128C95.802 36.7295 87.4574 28.3932 77.1637 28.3932C66.8701 28.3932 58.5255 36.7295 58.5255 47.0128C58.5255 57.2961 66.8701 65.6324 77.1637 65.6324Z" fill="#F2AAAA"/>
<path d="M107.348 37.2526C117.642 37.2526 125.987 28.9164 125.987 18.6331C125.987 8.34973 117.642 0.0134583 107.348 0.0134583C97.0547 0.0134583 88.71 8.34973 88.71 18.6331C88.71 28.9164 97.0547 37.2526 107.348 37.2526Z" fill="#F2AAAA"/>
</g>
<defs>
<clipPath id="clip0_1_56">
<rect width="126" height="125" fill="white"/>
</clipPath>
</defs>
</svg>
